<svg id="Capa_1" data-name="Capa 1" xmlns="http://www.w3.org/2000/svg" viewBox="0 0 1080 384"><defs><style>.cls-1{fill:#001524;}.cls-2{fill:#15616d;}</style></defs><path class="cls-1" d="M175.27,212.5c11.13,22.26,1.85,50.1-18.25,65.56C132.9,296.61,97.34,298.47,69.2,288c-22-9-38.66-38.65-23.82-59.37,6.5-9,14.85-12.37,25.05-9.28,9.59,2.78,19.18,6.19,29.07,8.35,28.45,9.9,35.26-1.85,10.83-13.92C77.85,198,28.38,176.93,20,145.39,4.87,85.71,162.28-8.92,185.47,62.82c6.19,19.79-9,32.16-23.19,35.26-19.17,4.32-112.57,38-69.27,61.84,10.2,5.88,25.67,12.07,42.67,20.42C151.76,187.45,167.85,197.34,175.27,212.5Z"/><path class="cls-1" d="M518.75,195.8c19.48,19.79,16.7,50.41.31,69.58C500.19,288,464.94,305.27,439.89,304a26.62,26.62,0,0,1-26-33.7c1.55-6.5,4.64-10.52,10.52-13.92,33.7-8,66.79-17,46.69-31.23-12.06-8.66-44.53-19.18-59.06-31.55-24.74-21-26.29-52.57-4-76.07,21.64-22.89,49.17-35.26,81.33-34.95,18.55,0,40.51,9,47.93,26,6.19,14.84-3.09,30-19.17,30.31-9.9.61-20.1-.31-30,0-24.74.92-50.41,14.22-18.86,28.45C487.51,176.31,505.14,182.19,518.75,195.8Z"/><path class="cls-1" d="M685.84,146.63a7.64,7.64,0,0,0,.31,2.78c1.24,13,2.16,26,4,39,2.47,21.64,9.28,42.05,7.11,63.7-1.85,8.66-6.8,14.23-15.15,15.77-21.34,4-30-26.9-32.16-41.75-.62-4.94-1.55-9.27-2.48-16.08-12.06,20.41-26.9,46.39-48.24,57.52-14.54,8-30.62,4.95-42.37-6.49-13.6-13.61-17.31-31.23-15.46-49.48,1.55-16.08,8-30.31,16.7-43.6,11.13-17.94,25.67-32.17,43.29-43.61a60.64,60.64,0,0,1,16.7-8.35c17.32-6.8,28.45-3.4,39.59,11.75C674.71,122.51,684,129.62,685.84,146.63Zm-46.7,10.82c-13,6.5-33.4,23.81-44.22,44.53-13,24.74-2.78,36.8,17,11.14C624,197.65,636.36,173.53,639.14,157.45Z"/><path class="cls-1" d="M851.05,128.69c34,19.17,38.35,85,56.28,116.28,4,6.8,4.95,13.91,0,20.72-4.33,6.18-12.37,8.66-20.72,6.8q-13-2.78-21.33-11.13c-17.63-16.7-26.6-42.37-32.17-64.33-8.35-32.16-23.81-27.52-39-10.2-16.08,18.55-31.55,51.33-36.49,68.65-1.24,3.71-2.48,7.73-4.95,11.45-5,8.65-16.08,13-26.29,10.51a21.58,21.58,0,0,1-17-21c1.24-41.75,9.59-115.35,18.56-137,3.09-6.8,8.66-10.2,16.39-10.2s12.68,4,15.77,10.2c4.64,12.68,4.33,27.84,4.64,40.21C788.58,134.88,822,111.68,851.05,128.69Z"/><path class="cls-1" d="M1055.14,146.63a7.64,7.64,0,0,0,.31,2.78c1.23,13,2.16,26,4,39,2.47,21.64,9.28,42.05,7.11,63.7-1.85,8.66-6.8,14.23-15.15,15.77-21.34,4-30-26.9-32.16-41.75-.62-4.94-1.55-9.27-2.48-16.08-12.06,20.41-26.9,46.39-48.24,57.52-14.54,8-30.62,4.95-42.37-6.49-13.61-13.61-17.32-31.23-15.46-49.48,1.55-16.08,8-30.31,16.7-43.6,11.13-17.94,25.67-32.17,43.29-43.61a60.64,60.64,0,0,1,16.7-8.35c17.32-6.8,28.45-3.4,39.59,11.75C1044,122.51,1053.28,129.62,1055.14,146.63Zm-46.7,10.82c-13,6.5-33.4,23.81-44.22,44.53-13,24.74-2.78,36.8,17,11.14C993.29,197.65,1005.66,173.53,1008.44,157.45Z"/><path class="cls-2" d="M301.92,238.16c-46.38,57.22-115.65,43-114.73-34,.31-28.45,8-58.76,14.85-76.39,8.66-32.47,52.57-21,47.62,4.33-3.4,18.25-12.68,37.73-13.91,55-3.72,40.51,11.44,59.37,42.05,21.65,13.92-17,25.67-47.63,35.88-71.13,4.63-10.82,13.6-17.94,26-16.7,12.06.93,18.56,8.35,23.51,18.86.3.93.61,1.55.92,2.79,4.95,34.94,19.49,60,37.42,79.16,7.42,8,10.83,18.25,3.4,27.84-4.63,6.49-13,8.66-21.33,6.18-31.24-9.28-46.08-31.23-54.12-61.23A265,265,0,0,1,301.92,238.16Z"/><circle class="cls-2" cx="261.94" cy="87.37" r="16.79"/><circle class="cls-2" cx="314.72" cy="87.37" r="16.79"/><path class="cls-2" d="M543.86,364.43q-4.3,0-4.31-3.9,0-3,10.56-30.54l12.61-32.39q2.14-5.53,6.35-5.54c2.87,0,5,1.82,6.46,5.44l12.61,32.39q10.56,27.78,10.56,31.05a2.91,2.91,0,0,1-1.44,2.51,5.24,5.24,0,0,1-3,1q-3.6,0-6.25-6.77l-2.77-9.22H552.88l-2.77,9.22Q547.65,364.43,543.86,364.43Zm25.32-61.5-13.53,37.51H582.5Z"/><path class="cls-2" d="M608.53,314.82q0-4.92,4.62-4.92a4.08,4.08,0,0,1,4.2,3,35.42,35.42,0,0,1,.31,5.74q5.52-8.61,11.89-8.61a5.25,5.25,0,0,1,3.53,1.28,4.21,4.21,0,0,1,1.49,3.33q0,3.08-4.41,4.62-3.37,1.13-5.33,2a12,12,0,0,0-2.77,1.58q-4.41,3.6-4.4,11.59v25.11c0,3.28-1.51,4.92-4.51,4.92s-4.62-1.64-4.62-4.92Z"/><path class="cls-2" d="M645.53,340.75q0,7.08,4.21,11.38t11.27,4.3a20.81,20.81,0,0,0,8.41-1.84,45,45,0,0,0,5.84-3.49c1.77-1.23,2.94-1.84,3.48-1.84a2.88,2.88,0,0,1,2.46,1.28,4.84,4.84,0,0,1,.93,2.92q0,4.52-8.92,8.1a37.92,37.92,0,0,1-13,2.77q-11.37,0-17.73-8.2-5.94-7.49-6-19.07a29.19,29.19,0,0,1,6.26-18.86,21.49,21.49,0,0,1,17.52-8.2q9.94,0,16.71,8.1a27.32,27.32,0,0,1,6.15,17.73q0,4.92-5,4.92Zm28.6-7a17.46,17.46,0,0,0-3.79-11,12.13,12.13,0,0,0-10.05-4.87q-7.06,0-10.91,3.95t-3.85,11.94Z"/><path class="cls-2" d="M700.06,316.77a18.4,18.4,0,0,1,15-6.87,16.81,16.81,0,0,1,13.42,6.15,21.76,21.76,0,0,1,4.72,14.14v29.32q0,4.92-4.51,4.92-5.13,0-5.13-9.74l.41-9,.52-9.84q0-17.93-12.3-17.94t-12.41,18l.41,9.74.52,9q0,9.74-5.13,9.74-4.6,0-4.61-4.92V314.82a5.21,5.21,0,0,1,1.23-3.43,4,4,0,0,1,3.28-1.49Q700.06,309.9,700.06,316.77Z"/><path class="cls-2" d="M788,359.92q0,4.41-4.2,4.41a3.66,3.66,0,0,1-3.79-2.57,18.2,18.2,0,0,1-.41-4.92q-5.85,7.59-14.35,7.59A21,21,0,0,1,747.82,356a27.29,27.29,0,0,1-4.5-8.5,33.16,33.16,0,0,1-1.54-10.36q0-11.16,6-18.85a21.09,21.09,0,0,1,17.33-8.41q7.58,0,14.24,6.76,0-6.77,4.41-6.76a4,4,0,0,1,3,1.28,4.48,4.48,0,0,1,1.23,3.23Zm-22.85-3.38q7.07,0,11-6.36a24.14,24.14,0,0,0,3.28-12.91,25.07,25.07,0,0,0-3.17-13A12.34,12.34,0,0,0,765.15,318a12.16,12.16,0,0,0-11.07,6.25,24.34,24.34,0,0,0-3.28,13,25.06,25.06,0,0,0,3.17,13A12.43,12.43,0,0,0,765.15,356.54Z"/><path class="cls-2" d="M816.09,309.9a25.78,25.78,0,0,1,5.23.51,28.87,28.87,0,0,1,5.53,1.85q6.87,2.76,6.87,7.17,0,3.79-4.2,3.79c-.69,0-2.5-.88-5.44-2.66a15.88,15.88,0,0,0-8.09-2.67,12.54,12.54,0,0,0-6.36,1.59,5.26,5.26,0,0,0-2.77,4.87q0,3.5,7.28,6.66Q827,336.46,827.77,337q7.28,4.31,7.28,11a14.72,14.72,0,0,1-6.15,12.4,21.35,21.35,0,0,1-6.15,3.07,25.22,25.22,0,0,1-7.58,1A32.82,32.82,0,0,1,803.38,362q-7.78-3.08-7.79-7.79a4.26,4.26,0,0,1,1.13-2.92,3.42,3.42,0,0,1,2.66-1.28c.75,0,3,1.09,6.61,3.28s7,3.28,10,3.28a13.42,13.42,0,0,0,6.56-1.64q3.48-2.06,3.48-5.44,0-4.2-7.28-7.68l-13.63-6.15q-7.27-4.31-7.28-10.66,0-6.77,5.85-11.28A20.3,20.3,0,0,1,816.09,309.9Z"/><path class="cls-2" d="M872,364.43q-4.62,0-4.62-4.92V297.6a5,5,0,0,1,1.39-3.59,4.72,4.72,0,0,1,3.54-1.43l17.21.1a22.94,22.94,0,0,1,16.46,6.3,21.38,21.38,0,0,1,6.61,16.15q0,14.55-11.89,19.47-7,2.88-24.09,2.87l.41,5.74.41,8.41Q877.38,364.43,872,364.43Zm4.41-35.16h12.71A14,14,0,0,0,903.31,315a13.89,13.89,0,0,0-14.66-14.55H876.36Z"/><path class="cls-2" d="M924.53,340.75q0,7.08,4.2,11.38t11.28,4.3a20.73,20.73,0,0,0,8.4-1.84,43.69,43.69,0,0,0,5.84-3.49c1.78-1.23,2.94-1.84,3.49-1.84a2.91,2.91,0,0,1,2.46,1.28,4.9,4.9,0,0,1,.92,2.92q0,4.52-8.92,8.1a37.92,37.92,0,0,1-13,2.77q-11.38,0-17.74-8.2-5.94-7.49-5.94-19.07a29.18,29.18,0,0,1,6.25-18.86,21.51,21.51,0,0,1,17.53-8.2q9.94,0,16.71,8.1a27.32,27.32,0,0,1,6.15,17.73q0,4.92-5,4.92Zm28.6-7a17.47,17.47,0,0,0-3.8-11,12.11,12.11,0,0,0-10-4.87c-4.72,0-8.35,1.32-10.92,3.95s-3.84,6.61-3.84,11.94Z"/><path class="cls-2" d="M979.06,316.77a18.37,18.37,0,0,1,15-6.87,16.83,16.83,0,0,1,13.43,6.15,21.81,21.81,0,0,1,4.71,14.14v29.32q0,4.92-4.51,4.92-5.11,0-5.12-9.74l.41-9,.51-9.84q0-17.93-12.3-17.94t-12.4,18l.41,9.74.51,9q0,9.74-5.12,9.74c-3.08,0-4.61-1.64-4.61-4.92V314.82a5.16,5.16,0,0,1,1.23-3.43,4,4,0,0,1,3.27-1.49Q979.06,309.9,979.06,316.77ZM986,292a20.37,20.37,0,0,1,5.12,1,20.56,20.56,0,0,0,5.33,1,6.86,6.86,0,0,0,3-1,8.55,8.55,0,0,1,3.08-1.08,3.09,3.09,0,0,1,2.31,1.23,5.24,5.24,0,0,1,1.28,2.77q0,3-3.39,5a12.59,12.59,0,0,1-6.25,1.54,25,25,0,0,1-5.43-.93c-1-.27-2-.51-3-.71a11.75,11.75,0,0,0-2.46-.31,7.3,7.3,0,0,0-3,.92,11.43,11.43,0,0,1-3.07,1.13,3.09,3.09,0,0,1-2.31-1.23,4.63,4.63,0,0,1-1.18-2.77c0-2.11,1.17-3.82,3.49-5.12A14.2,14.2,0,0,1,986,292Z"/><path class="cls-2" d="M1067,359.92q0,4.41-4.2,4.41a3.67,3.67,0,0,1-3.8-2.57,18.2,18.2,0,0,1-.41-4.92q-5.83,7.59-14.34,7.59a21,21,0,0,1-17.43-8.41,27.53,27.53,0,0,1-4.51-8.5,33.46,33.46,0,0,1-1.54-10.36q0-11.16,6-18.85a21.07,21.07,0,0,1,17.32-8.41q7.59,0,14.25,6.76,0-6.77,4.41-6.76a4,4,0,0,1,3,1.28,4.48,4.48,0,0,1,1.23,3.23Zm-22.86-3.38q7.08,0,11-6.36a24.14,24.14,0,0,0,3.28-12.91,25,25,0,0,0-3.18-13,12.34,12.34,0,0,0-11.07-6.25,12.18,12.18,0,0,0-11.07,6.25,24.34,24.34,0,0,0-3.28,13,25,25,0,0,0,3.18,13A12.42,12.42,0,0,0,1044.14,356.54Z"/></svg>